<?xml version="1.0" standalone="no"?>
<!DOCTYPE svg PUBLIC "-//W3C//DTD SVG 20010904//EN"
 "http://www.w3.org/TR/2001/REC-SVG-20010904/DTD/svg10.dtd">
<svg version="1.0" xmlns="http://www.w3.org/2000/svg"
 width="1920.000000pt" height="1920.000000pt" viewBox="0 0 1920.000000 1920.000000"
 preserveAspectRatio="xMidYMid meet">
<metadata>
Created by potrace 1.14, written by Peter Selinger 2001-2017
</metadata>
<g transform="translate(0.000000,1920.000000) scale(0.100000,-0.100000)"
fill="#000000" stroke="none">
<path d="M9229 18496 c-2 -2 -69 -6 -149 -10 -80 -3 -156 -8 -170 -10 -14 -2
-65 -7 -114 -11 -49 -4 -98 -8 -110 -10 -11 -2 -46 -6 -77 -9 -31 -3 -74 -9
-95 -12 -50 -8 -66 -10 -139 -18 -74 -9 -284 -43 -345 -56 -25 -5 -58 -12 -75
-15 -56 -9 -240 -46 -280 -57 -22 -5 -47 -12 -55 -13 -17 -4 -347 -84 -370
-90 -300 -80 -881 -279 -1067 -366 -35 -16 -67 -29 -73 -29 -6 0 -18 -4 -28
-10 -20 -11 -153 -72 -232 -105 -89 -38 -403 -197 -424 -214 -10 -9 -19 -14
-20 -12 -1 5 -104 -50 -197 -106 -31 -18 -61 -33 -67 -33 -5 0 -15 -7 -22 -15
-7 -8 -16 -13 -20 -10 -5 3 -10 1 -12 -4 -3 -8 -133 -91 -144 -91 -2 0 -10 -5
-17 -10 -7 -6 -32 -23 -57 -39 -69 -44 -369 -243 -400 -266 -15 -11 -50 -36
-76 -55 -27 -19 -55 -40 -62 -47 -7 -7 -17 -13 -21 -13 -4 0 -16 -8 -27 -18
-10 -9 -44 -35 -74 -57 -30 -21 -73 -54 -95 -72 -22 -19 -44 -37 -50 -41 -31
-23 -232 -187 -240 -196 -5 -6 -28 -26 -50 -45 -318 -269 -736 -693 -1000
-1015 -22 -27 -52 -63 -67 -80 -15 -17 -39 -48 -55 -68 -15 -20 -55 -71 -88
-114 -51 -65 -89 -116 -232 -313 -10 -14 -33 -44 -50 -68 -18 -24 -33 -46 -33
-48 0 -8 -99 -155 -121 -180 -9 -11 -29 -42 -45 -70 -15 -27 -30 -52 -33 -55
-4 -3 -12 -16 -19 -30 -6 -14 -30 -54 -52 -89 -22 -34 -40 -67 -40 -72 0 -5
-4 -9 -9 -9 -5 0 -13 -10 -17 -22 -3 -13 -15 -34 -24 -48 -10 -14 -33 -53 -51
-85 -17 -33 -43 -80 -57 -105 -14 -25 -49 -91 -78 -147 -30 -57 -58 -111 -64
-120 -18 -32 -130 -274 -130 -282 0 -4 -5 -12 -12 -19 -6 -6 -13 -19 -14 -27
-3 -22 -28 -75 -35 -75 -3 0 -6 -6 -6 -13 0 -6 -13 -41 -29 -77 -16 -36 -29
-67 -29 -70 -1 -3 -8 -21 -17 -40 -15 -32 -52 -128 -54 -140 0 -3 -10 -25 -21
-50 -11 -25 -23 -56 -27 -70 -4 -14 -11 -34 -16 -45 -5 -11 -16 -40 -24 -65
-8 -25 -20 -58 -27 -75 -7 -16 -13 -32 -14 -35 -17 -63 -37 -128 -44 -140 -5
-9 -12 -31 -16 -50 -4 -19 -11 -41 -16 -50 -13 -24 -122 -413 -133 -475 -14
-72 -17 -86 -26 -110 -5 -14 -7 -25 -4 -25 2 0 0 -8 -5 -17 -5 -10 -12 -31
-15 -48 -3 -16 -10 -50 -16 -75 -13 -49 -14 -57 -35 -170 -8 -41 -16 -86 -19
-100 -5 -22 -13 -64 -21 -110 -2 -8 -10 -53 -19 -100 -8 -47 -20 -125 -26
-175 -6 -49 -13 -103 -16 -120 -8 -55 -14 -99 -20 -160 -3 -33 -7 -71 -9 -84
-2 -12 -7 -60 -11 -105 -3 -44 -8 -84 -10 -87 -25 -43 -24 -1323 0 -1401 3 -7
7 -51 11 -98 7 -92 9 -113 20 -205 24 -205 55 -430 65 -475 6 -25 12 -55 15
-68 42 -225 63 -331 92 -447 19 -77 37 -153 40 -170 8 -48 30 -135 53 -210 12
-38 34 -115 49 -170 34 -120 89 -294 138 -430 20 -55 42 -118 50 -140 17 -48
90 -238 108 -280 7 -16 39 -91 70 -165 32 -74 62 -139 66 -144 5 -6 9 -18 9
-28 0 -10 5 -18 10 -18 6 0 10 -6 10 -13 0 -7 23 -59 50 -114 28 -56 50 -103
50 -106 0 -2 18 -36 39 -75 21 -39 36 -73 33 -76 -3 -3 -1 -6 5 -6 6 0 18 -19
28 -42 9 -23 24 -53 34 -67 10 -14 33 -55 52 -91 19 -36 46 -84 61 -106 16
-23 28 -45 28 -48 0 -3 22 -42 50 -86 27 -44 50 -84 50 -90 0 -5 4 -10 8 -10
5 0 14 -12 21 -27 15 -33 248 -385 307 -463 345 -460 366 -487 583 -735 233
-267 589 -618 856 -846 15 -13 33 -29 39 -34 17 -16 226 -187 262 -215 55 -42
226 -171 274 -206 25 -19 50 -38 57 -44 7 -5 16 -10 22 -10 5 0 11 -4 13 -9 4
-12 424 -291 438 -291 5 0 10 -4 10 -9 0 -5 8 -11 18 -15 9 -3 60 -33 112 -66
52 -33 102 -63 110 -67 8 -3 47 -24 85 -47 187 -107 550 -290 760 -381 72 -31
145 -63 163 -71 73 -32 103 -44 222 -90 69 -26 153 -58 187 -71 34 -12 68 -23
77 -23 8 0 17 -4 20 -9 3 -5 18 -12 33 -15 16 -4 84 -25 153 -48 69 -22 170
-53 225 -68 55 -16 141 -40 190 -54 50 -15 122 -33 160 -41 95 -21 96 -21 178
-44 63 -17 178 -41 257 -55 14 -2 59 -11 100 -19 184 -38 367 -68 580 -93 25
-3 56 -7 70 -9 14 -2 79 -9 145 -15 66 -6 136 -13 155 -15 209 -26 1241 -27
1390 -1 14 2 63 7 110 10 47 4 96 8 110 11 14 2 50 7 80 9 30 3 64 7 75 10 11
2 49 7 85 11 36 4 72 8 80 10 8 1 40 6 70 9 122 16 562 102 740 145 63 16 149
36 190 46 41 9 95 24 120 32 25 8 54 17 65 19 28 6 140 39 305 92 80 25 150
47 155 48 26 6 262 92 280 101 11 6 24 11 28 11 10 0 137 50 272 107 133 56
139 58 148 57 4 -1 7 3 7 8 0 6 4 10 9 10 11 0 107 43 228 101 45 22 84 39 86
37 2 -2 11 3 19 9 23 19 188 102 188 95 0 -4 4 -2 8 4 4 6 52 34 107 64 136
72 139 74 145 82 3 4 17 11 30 17 14 6 42 21 62 33 21 13 76 47 124 75 47 29
90 53 95 53 5 0 9 4 9 9 0 5 20 20 45 32 25 12 45 26 45 31 0 4 5 8 11 8 6 0
25 11 43 25 18 14 36 25 40 25 7 0 76 49 86 61 3 3 16 12 30 19 14 7 81 54
150 103 442 319 771 598 1140 968 252 253 443 469 718 814 34 42 162 216 239
324 10 14 33 44 51 68 17 24 32 46 32 48 0 8 99 155 121 180 9 11 29 43 45 70
15 28 30 52 33 55 4 3 12 16 19 30 6 14 30 54 52 89 22 34 40 67 40 72 0 5 4
9 9 9 5 0 13 10 17 23 3 12 15 33 24 47 10 14 33 53 51 85 17 33 43 80 57 105
14 25 49 91 78 147 30 57 58 111 64 120 18 32 130 274 130 282 0 4 5 12 12 19
6 6 13 19 14 27 3 22 28 75 35 75 3 0 6 6 6 13 0 6 13 41 29 77 16 36 29 67
29 70 1 3 8 21 17 40 16 35 52 130 53 140 1 3 6 15 13 28 13 23 40 94 47 122
5 19 62 178 74 205 8 17 14 37 26 85 0 3 15 48 32 100 17 52 43 138 58 190 15
52 32 111 38 130 6 19 12 41 14 47 6 24 10 38 16 53 3 8 13 51 22 95 9 44 23
107 32 140 8 33 16 65 17 70 1 6 12 53 23 105 20 89 46 217 58 285 2 17 7 41
10 55 22 110 36 196 50 306 9 71 18 140 20 154 9 54 20 155 29 285 4 50 9 96
11 103 26 76 26 1305 1 1384 -3 7 -7 51 -11 98 -7 92 -9 113 -20 205 -24 205
-55 430 -65 475 -6 25 -13 56 -15 70 -26 140 -58 304 -66 340 -6 25 -12 52
-14 60 -2 8 -14 60 -28 115 -13 55 -30 127 -37 160 -7 33 -15 67 -18 75 -3 8
-6 20 -8 25 -1 6 -14 51 -29 100 -14 50 -37 128 -50 175 -13 47 -38 125 -54
175 -17 49 -31 97 -31 105 0 9 -4 20 -9 25 -5 6 -14 26 -19 45 -16 53 -80 227
-92 250 -6 11 -8 20 -5 20 3 0 -3 12 -12 27 -10 15 -17 28 -15 30 1 2 -5 19
-13 39 -8 20 -15 38 -15 39 0 1 -7 19 -15 39 -8 20 -16 39 -17 43 -1 5 -21 50
-44 101 -24 50 -41 92 -37 92 3 0 0 6 -6 13 -6 8 -8 17 -4 20 3 4 1 7 -5 7 -6
0 -14 10 -18 22 -3 12 -33 78 -66 147 -78 167 -92 195 -98 201 -3 3 -28 50
-56 105 -28 55 -87 163 -131 240 -103 183 -107 189 -114 195 -3 3 -16 25 -30
50 -13 25 -27 49 -32 55 -18 24 -57 86 -57 92 0 3 -25 41 -55 84 -30 43 -55
83 -55 88 0 5 -4 11 -8 13 -5 2 -37 46 -73 99 -35 53 -74 109 -87 125 -12 16
-44 59 -70 95 -86 121 -76 108 -192 254 -313 395 -637 741 -993 1062 -83 75
-157 142 -163 148 -25 23 -259 215 -310 255 -55 42 -226 171 -274 206 -25 19
-50 38 -57 44 -7 5 -16 10 -22 10 -5 0 -11 4 -13 9 -4 12 -424 291 -438 291
-5 0 -10 4 -10 9 0 5 -8 11 -17 15 -10 3 -61 33 -113 66 -52 33 -102 63 -110
67 -8 3 -46 24 -85 47 -187 107 -550 290 -760 381 -71 31 -145 63 -162 71
-100 44 -258 106 -270 106 -4 0 -12 3 -18 8 -5 4 -28 13 -50 19 -22 7 -49 16
-60 21 -53 22 -301 107 -340 116 -5 1 -84 25 -175 52 -140 43 -365 103 -435
116 -11 2 -65 15 -120 29 -90 23 -165 39 -235 51 -14 2 -59 11 -100 19 -180
38 -341 63 -580 93 -19 2 -51 6 -70 9 -41 5 -203 21 -310 31 -41 3 -93 8 -115
10 -53 6 -941 15 -946 10z"/>
</g>
</svg>
